<?xml version="1.0" encoding="UTF-8"?>
<svg xmlns="http://www.w3.org/2000/svg" xmlns:xlink="http://www.w3.org/1999/xlink" width="100pt" height="100pt" viewBox="0 0 100 100" version="1.1">
<g id="surface1417">
<path style=" stroke:none;fill-rule:nonzero;fill:rgb(57.647059%,8.235294%,10.980392%);fill-opacity:1;" d="M 71 82 L 29 82 C 22.925781 82 18 77.074219 18 71 L 18 29 C 18 22.925781 22.925781 18 29 18 L 71 18 C 77.074219 18 82 22.925781 82 29 L 82 71 C 82 77.074219 77.074219 82 71 82 Z M 71 82 "/>
<path style=" stroke:none;fill-rule:nonzero;fill:rgb(83.921569%,56.078431%,32.54902%);fill-opacity:1;" d="M 18 39 L 18 29 C 18 22.925781 22.925781 18 29 18 L 71 18 C 77.074219 18 82 22.925781 82 29 L 82 39 Z M 18 39 "/>
<path style=" stroke:none;fill-rule:nonzero;fill:rgb(94.509804%,35.686275%,42.352941%);fill-opacity:1;" d="M 26 38 L 22 38 L 22 20 L 26 19 Z M 26 38 "/>
<path style=" stroke:none;fill-rule:nonzero;fill:rgb(97.647059%,90.196078%,36.078431%);fill-opacity:1;" d="M 25 38 L 29 38 L 29 18 L 25 19 Z M 25 38 "/>
<path style=" stroke:none;fill-rule:nonzero;fill:rgb(63.137255%,82.745098%,63.529412%);fill-opacity:1;" d="M 28 18 L 32 18 L 32 38 L 28 38 Z M 28 18 "/>
<path style=" stroke:none;fill-rule:nonzero;fill:rgb(22.352941%,76.078431%,84.705882%);fill-opacity:1;" d="M 31 18 L 35 18 L 35 38 L 31 38 Z M 31 18 "/>
<path style=" stroke:none;fill-rule:nonzero;fill:rgb(71.764706%,46.666667%,28.235294%);fill-opacity:1;" d="M 66.5 24.5 L 74.5 24.5 L 74.5 32.5 L 66.5 32.5 Z M 66.5 24.5 "/>
<path style=" stroke:none;fill-rule:nonzero;fill:rgb(99.607843%,99.215686%,93.72549%);fill-opacity:1;" d="M 50 34 C 41.164062 34 34 41.164062 34 50 C 34 58.835938 41.164062 66 50 66 C 58.835938 66 66 58.835938 66 50 C 66 41.164062 58.835938 34 50 34 Z M 50 34 "/>
<path style=" stroke:none;fill-rule:nonzero;fill:rgb(56.078431%,61.960784%,71.372549%);fill-opacity:1;" d="M 50 39 C 43.925781 39 39 43.925781 39 50 C 39 56.074219 43.925781 61 50 61 C 56.074219 61 61 56.074219 61 50 C 61 43.925781 56.074219 39 50 39 Z M 50 39 "/>
<path style=" stroke:none;fill-rule:nonzero;fill:rgb(47.058824%,80.392157%,83.137255%);fill-opacity:1;" d="M 45.035156 41.070312 C 42.847656 41.070312 41.070312 42.847656 41.070312 45.035156 C 41.070312 47.226562 42.847656 49 45.035156 49 C 47.226562 49 49 47.226562 49 45.035156 C 49 42.847656 47.226562 41.070312 45.035156 41.070312 Z M 45.035156 41.070312 "/>
<path style=" stroke:none;fill-rule:nonzero;fill:rgb(71.764706%,46.666667%,28.235294%);fill-opacity:1;" d="M 32.5 36.5 L 24.5 36.5 C 23.394531 36.5 22.5 37.394531 22.5 38.5 C 22.5 39.605469 23.394531 40.5 24.5 40.5 L 32.5 40.5 C 33.605469 40.5 34.5 39.605469 34.5 38.5 C 34.5 37.394531 33.605469 36.5 32.5 36.5 Z M 32.5 36.5 "/>
<path style=" stroke:none;fill-rule:nonzero;fill:rgb(12.156863%,12.941176%,16.862745%);fill-opacity:1;" d="M 49.964844 65.929688 C 47.414062 65.929688 44.875 65.3125 42.621094 64.144531 C 37.304688 61.386719 34 55.949219 34 49.964844 C 34 41.160156 41.160156 34 49.964844 34 C 58.765625 34 65.929688 41.160156 65.929688 49.964844 C 65.929688 58.765625 58.765625 65.929688 49.964844 65.929688 Z M 49.964844 35 C 41.714844 35 35 41.714844 35 49.964844 C 35 55.574219 38.097656 60.671875 43.085938 63.257812 C 45.222656 64.363281 47.539062 64.929688 49.964844 64.929688 C 58.214844 64.929688 64.929688 58.214844 64.929688 49.964844 C 64.929688 41.714844 58.214844 35 49.964844 35 Z M 49.964844 35 "/>
<path style=" stroke:none;fill-rule:nonzero;fill:rgb(12.156863%,12.941176%,16.862745%);fill-opacity:1;" d="M 67.5 39 L 60.5 39 C 60.222656 39 60 38.777344 60 38.5 C 60 38.222656 60.222656 38 60.5 38 L 67.5 38 C 67.777344 38 68 38.222656 68 38.5 C 68 38.777344 67.777344 39 67.5 39 Z M 39.5 39 L 34.5 39 C 34.222656 39 34 38.777344 34 38.5 C 34 38.222656 34.222656 38 34.5 38 L 39.5 38 C 39.777344 38 40 38.222656 40 38.5 C 40 38.777344 39.777344 39 39.5 39 Z M 22.5 39 L 18.5 39 C 18.222656 39 18 38.777344 18 38.5 C 18 38.222656 18.222656 38 18.5 38 L 22.5 38 C 22.777344 38 23 38.222656 23 38.5 C 23 38.777344 22.777344 39 22.5 39 Z M 81.5 39 L 70.5 39 C 70.222656 39 70 38.777344 70 38.5 C 70 38.222656 70.222656 38 70.5 38 L 81.5 38 C 81.777344 38 82 38.222656 82 38.5 C 82 38.777344 81.777344 39 81.5 39 Z M 81.5 39 "/>
<path style=" stroke:none;fill-rule:nonzero;fill:rgb(12.156863%,12.941176%,16.862745%);fill-opacity:1;" d="M 71 83 L 29 83 C 22.382812 83 17 77.617188 17 71 L 17 29 C 17 22.382812 22.382812 17 29 17 L 71 17 C 77.617188 17 83 22.382812 83 29 L 83 71 C 83 77.617188 77.617188 83 71 83 Z M 29 19 C 23.484375 19 19 23.484375 19 29 L 19 71 C 19 76.515625 23.484375 81 29 81 L 71 81 C 76.515625 81 81 76.515625 81 71 L 81 29 C 81 23.484375 76.515625 19 71 19 Z M 29 19 "/>
<path style=" stroke:none;fill-rule:nonzero;fill:rgb(12.156863%,12.941176%,16.862745%);fill-opacity:1;" d="M 50 61 C 43.933594 61 39 56.066406 39 50 C 39 43.933594 43.933594 39 50 39 C 54.648438 39 58.8125 41.941406 60.367188 46.320312 C 60.460938 46.578125 60.324219 46.863281 60.0625 46.957031 C 59.804688 47.046875 59.519531 46.914062 59.425781 46.652344 C 58.015625 42.675781 54.226562 40 50 40 C 44.484375 40 40 44.484375 40 50 C 40 55.515625 44.484375 60 50 60 C 50.277344 60 50.5 60.222656 50.5 60.5 C 50.5 60.777344 50.277344 61 50 61 Z M 60.488281 50 C 60.222656 50 60 49.792969 59.988281 49.523438 C 59.972656 49.203125 59.941406 48.882812 59.898438 48.570312 C 59.859375 48.296875 60.050781 48.042969 60.324219 48.003906 C 60.589844 47.972656 60.847656 48.15625 60.886719 48.429688 C 60.9375 48.773438 60.972656 49.125 60.988281 49.476562 C 61 49.753906 60.785156 49.988281 60.511719 50 C 60.503906 50 60.496094 50 60.488281 50 Z M 60.488281 50 "/>
<path style=" stroke:none;fill-rule:nonzero;fill:rgb(12.156863%,12.941176%,16.862745%);fill-opacity:1;" d="M 45.035156 49 C 44.394531 49 43.78125 48.851562 43.214844 48.558594 C 41.894531 47.871094 41.070312 46.523438 41.070312 45.035156 C 41.070312 42.851562 42.851562 41.074219 45.035156 41.074219 C 47.222656 41.074219 49 42.851562 49 45.035156 C 49 47.222656 47.222656 49 45.035156 49 Z M 45.035156 42.070312 C 43.402344 42.070312 42.070312 43.402344 42.070312 45.035156 C 42.070312 46.148438 42.683594 47.15625 43.675781 47.671875 C 44.097656 47.890625 44.554688 48 45.035156 48 C 46.671875 48 48 46.671875 48 45.035156 C 48 43.402344 46.671875 42.070312 45.035156 42.070312 Z M 74.5 33 L 66.5 33 C 66.222656 33 66 32.777344 66 32.5 L 66 24.5 C 66 24.222656 66.222656 24 66.5 24 L 74.5 24 C 74.777344 24 75 24.222656 75 24.5 L 75 32.5 C 75 32.777344 74.777344 33 74.5 33 Z M 67 32 L 74 32 L 74 25 L 67 25 Z M 22.5 34 C 22.222656 34 22 33.777344 22 33.5 L 22 20.5 C 22 20.222656 22.222656 20 22.5 20 C 22.777344 20 23 20.222656 23 20.5 L 23 33.5 C 23 33.777344 22.777344 34 22.5 34 Z M 31.5 37 C 31.222656 37 31 36.777344 31 36.5 L 31 21.5 C 31 21.222656 31.222656 21 31.5 21 C 31.777344 21 32 21.222656 32 21.5 L 32 36.5 C 32 36.777344 31.777344 37 31.5 37 Z M 34.5 39 C 34.222656 39 34 38.777344 34 38.5 L 34 34.5 C 34 34.222656 34.222656 34 34.5 34 C 34.777344 34 35 34.222656 35 34.5 L 35 38.5 C 35 38.777344 34.777344 39 34.5 39 Z M 34.5 32 C 34.222656 32 34 31.777344 34 31.5 L 34 29.5 C 34 29.222656 34.222656 29 34.5 29 C 34.777344 29 35 29.222656 35 29.5 L 35 31.5 C 35 31.777344 34.777344 32 34.5 32 Z M 34.5 27 C 34.222656 27 34 26.777344 34 26.5 L 34 18.5 C 34 18.222656 34.222656 18 34.5 18 C 34.777344 18 35 18.222656 35 18.5 L 35 26.5 C 35 26.777344 34.777344 27 34.5 27 Z M 28.5 26 C 28.222656 26 28 25.777344 28 25.5 L 28 18.5 C 28 18.222656 28.222656 18 28.5 18 C 28.777344 18 29 18.222656 29 18.5 L 29 25.5 C 29 25.777344 28.777344 26 28.5 26 Z M 28.5 37 C 28.222656 37 28 36.777344 28 36.5 L 28 28.5 C 28 28.222656 28.222656 28 28.5 28 C 28.777344 28 29 28.222656 29 28.5 L 29 36.5 C 29 36.777344 28.777344 37 28.5 37 Z M 25.5 37 C 25.222656 37 25 36.777344 25 36.5 L 25 34.5 C 25 34.222656 25.222656 34 25.5 34 C 25.777344 34 26 34.222656 26 34.5 L 26 36.5 C 26 36.777344 25.777344 37 25.5 37 Z M 25.5 32 C 25.222656 32 25 31.777344 25 31.5 L 25 18.5 C 25 18.222656 25.222656 18 25.5 18 C 25.777344 18 26 18.222656 26 18.5 L 26 31.5 C 26 31.777344 25.777344 32 25.5 32 Z M 25.5 32 "/>
<path style=" stroke:none;fill-rule:nonzero;fill:rgb(12.156863%,12.941176%,16.862745%);fill-opacity:1;" d="M 32.5 41 L 24.5 41 C 23.121094 41 22 39.878906 22 38.5 C 22 37.121094 23.121094 36 24.5 36 L 32.5 36 C 33.878906 36 35 37.121094 35 38.5 C 35 39.878906 33.878906 41 32.5 41 Z M 24.5 37 C 23.671875 37 23 37.671875 23 38.5 C 23 39.328125 23.671875 40 24.5 40 L 32.5 40 C 33.328125 40 34 39.328125 34 38.5 C 34 37.671875 33.328125 37 32.5 37 Z M 24.5 37 "/>
</g>
</svg>
