<?xml version="1.0" encoding="UTF-8" standalone="no"?>
<!-- Created with Inkscape (http://www.inkscape.org/) -->
<svg xmlns:dc="http://purl.org/dc/elements/1.1/" xmlns:cc="http://creativecommons.org/ns#" xmlns:rdf="http://www.w3.org/1999/02/22-rdf-syntax-ns#" xmlns:svg="http://www.w3.org/2000/svg" xmlns="http://www.w3.org/2000/svg" xmlns:sodipodi="http://sodipodi.sourceforge.net/DTD/sodipodi-0.dtd" xmlns:inkscape="http://www.inkscape.org/namespaces/inkscape" id="svg2" version="1.1" inkscape:version="0.48.4 r9939" width="680" height="320" sodipodi:docname="beaune.svg">
  <metadata id="metadata8">
    <rdf:RDF>
      <cc:Work rdf:about="">
        <dc:format>image/svg+xml</dc:format>
        <dc:type rdf:resource="http://purl.org/dc/dcmitype/StillImage"/>
        <dc:title/>
      </cc:Work>
    </rdf:RDF>
  </metadata>
  <defs id="defs6"/>
  <sodipodi:namedview pagecolor="#ffffff" bordercolor="#666666" borderopacity="1" objecttolerance="10" gridtolerance="10" guidetolerance="10" inkscape:pageopacity="0" inkscape:pageshadow="2" inkscape:window-width="1366" inkscape:window-height="716" id="namedview4" showgrid="false" inkscape:zoom="0.72555305" inkscape:cx="151.81718" inkscape:cy="258.2903" inkscape:window-x="-8" inkscape:window-y="-8" inkscape:window-maximized="1" inkscape:current-layer="svg2"/>
  <path style="fill:#000000;fill-opacity:1" d="M 401.08178,13.473522 C 388.29806,13.434686 372.05712,15.73516 352.6618,20.767961 236.19956,50.988145 98.312065,140.17239 44.59755,220.10736 c -12.464718,18.54932 -13.003259,19.11537 -8.803635,9.05516 18.088962,-43.33218 10.8004,-72.41264 -14.08581,-56.1546 -4.371813,2.85608 -9.77656,7.58157 -11.9477878,10.50148 l -3.8987516,5.28218 6.4140764,-4.59047 c 8.785844,-6.25613 18.144878,-6.29567 23.140975,-0.12576 l 3.898752,4.84199 -1.257662,11.06743 c -0.690608,6.10129 -4.392651,22.34827 -8.237685,36.09489 -4.895236,17.50128 -4.646819,18.76003 -9.558634,33.70254 6.733197,-13.44802 6.603106,-13.46791 10.061699,-20.11979 C 80.45678,153.24066 272.23495,40.101322 385.80119,39.004057 c 8.88438,-0.08592 33.52393,0.279201 26.72531,13.645631 -1.37952,2.712223 -9.03609,10.260468 -18.80204,17.858797 -53.59885,41.702235 -56.91145,52.809255 -19.30511,65.272645 l 19.61952,6.47696 8.99228,8.9294 c 11.23112,11.15466 14.08487,9.66339 -43.20068,22.51215 -25.45507,5.7094 -48.02533,10.9201 -50.18071,11.57049 -2.15537,0.65038 1.60021,-3.92548 8.36346,-10.18707 12.03958,-11.14652 22.96138,-26.04349 25.59341,-34.83723 l 1.32055,-4.40181 -6.53984,1.88649 c -4.57385,1.31177 -8.94802,1.89277 -9.684,0.31441 -0.66672,-1.42987 1.94757,-4.81443 5.03065,-7.67173 5.17024,-4.79161 5.43789,-10.90212 4.4647,-16.47537 -1.04149,-5.05218 -7.24516,-10.13762 -12.95392,-12.38797 1.58669,-5.80499 2.61441,-13.44328 -2.82974,-19.179344 -5.86889,-5.585749 -16.69209,-7.813842 -24.39864,-5.973893 -6.18385,1.30336 -12.87996,4.210491 -20.12259,8.803632 -16.8847,10.707955 -26.93517,33.270425 -18.80202,42.257435 4.17073,4.60862 3.06835,7.24419 -10.18706,23.51828 l -9.18093,11.25607 c 15.22875,-2.35044 29.97195,-11.95324 41.06264,-24.27287 1.89627,-13.50974 6.06615,-29.16256 17.35573,-35.96913 3.39925,-2.04942 8.51204,-2.7051 13.33121,2.07514 -5.24507,2.68737 -7.97178,6.51751 -8.61498,12.51374 -0.82899,7.72838 0.68065,14.30893 4.96776,19.36799 1.63959,1.93481 3.63143,2.94454 5.9739,3.01839 1.98795,0.0628 5.95787,1.09449 8.1748,-0.62883 1.42804,-1.11009 1.30547,-2.75962 3.64722,-2.64109 2.49043,0.12596 1.2939,5.16267 -1.1319,9.87264 -4.93526,8.26662 -9.6849,16.77425 -22.76368,12.38797 -1.94529,-0.65239 -2.88829,-3.09363 -5.72236,-3.96163 -1.78404,2.69113 -4.89612,7.09868 -6.98002,10.12417 0.68638,4.22643 10.94472,4.79916 15.09194,4.52759 3.77154,-0.73695 7.95678,-3.98947 12.45085,-7.29444 l 8.80364,-6.47696 -3.89875,6.72849 c -2.14745,3.69483 -10.15938,12.52068 -17.79592,19.61952 -7.63654,7.09887 -13.46686,12.51227 -11.62818,11.80671 2.43743,-0.93534 4.12793,-0.66203 3.26473,1.58739 -0.35712,0.93063 -1.54791,1.68106 -2.42928,3.56931 2.10557,1.98688 4.33956,4.34497 5.38478,7.24658 l -7.92326,7.79751 c -8.47266,8.27334 -9.13184,7.91033 -5.91101,-3.14416 0.7157,-2.45642 1.66504,-8.23311 2.26159,-13.34783 0.0761,-0.65163 1.88048,-1.48274 3.60146,-2.1427 1.56886,-0.60162 6.44845,-1.29175 6.50592,-1.89406 -2.87465,-0.75379 -6.83367,0.74474 -8.78299,-0.36403 0.49019,-7.7472 -0.26266,-15.65487 -0.88201,-13.44139 -9.4484,33.76707 -20.63763,61.94465 -33.70532,84.89217 l -7.10579,12.45085 7.04291,-1.13189 7.0429,-1.1319 5.47081,5.03065 c 2.98797,2.77255 7.21898,6.01034 9.43247,7.23156 33.30703,18.37612 139.92194,-66.68035 154.06357,-122.93645 2.7351,-7.11013 2.74661,-11.96416 -1.00613,-18.55051 -4.64321,-12.15805 -13.47262,-19.23792 -35.02588,-28.17162 -10.0517,-4.16636 -19.63343,-9.08094 -21.31737,-10.94166 -3.86768,-2.90284 -3.1849,-4.35318 -0.12577,-7.54597 1.5955,-2.27792 10.83656,-9.64607 20.56277,-16.349605 55.86444,-38.503024 54.27117,-68.089528 8.61499,-68.228153 z m -48.23133,52.884679 c -1.42989,0.098 -1.2936,0.3315 -3.96164,1.383428 -0.67024,1.471042 -2.88455,6.767891 -4.40181,9.621113 -3.6172,0.512824 -5.48749,0.844565 -9.55823,1.320545 -0.39366,0.721113 -2.13803,3.647219 -2.13803,3.647219 3.41338,-0.687226 5.94824,-1.004217 9.05517,-1.446311 l -9.55823,18.739165 c 0.82404,0.10705 1.8589,-0.13462 2.9555,0 3.92222,-7.208 5.93643,-10.24858 11.06743,-19.493762 4.44214,-0.99971 5.76282,-1.573365 9.49534,-2.263791 0.60028,-1.605521 0.77146,-1.890417 1.1319,-3.332804 -2.16304,0.686522 -5.43004,1.220475 -8.5521,1.949376 1.31426,-2.897291 3.14162,-6.887499 4.4647,-10.124178 z m -47.53962,15.532124 c 10.73158,-0.149712 19.58188,3.712879 14.33735,18.990695 l -3.89876,1.32054 c -0.74801,0.25003 -1.46013,0.54196 -2.13802,0.81748 -2.52514,-6.47327 -6.4968,-9.17964 -11.57049,-9.18093 -13.06197,-0.004 -21.15896,9.76026 -28.23451,21.00295 l -8.11192,13.0168 -2.8926,-2.89262 c -4.56889,-4.56889 -1.11962,-16.82504 7.29442,-26.15936 8.85605,-9.82466 19.10105,-15.441797 30.56118,-16.664023 1.57333,-0.165408 3.12027,-0.230142 4.65335,-0.251532 z m 16.66402,24.335755 c 2.02958,-0.0223 4.02001,0.36195 6.16254,1.25766 3.61754,2.0147 4.91336,5.44463 5.34507,9.18093 0.36321,3.14345 0.35033,6.17156 -0.62884,7.54597 -1.55127,2.17749 -4.46469,2.7933 -4.46469,-0.37729 0,-2.51935 -1.6369,-6.42714 -4.90489,-8.17481 -2.93387,-1.56895 -5.06531,-1.94674 -7.98615,-1.63496 -3.70268,0.39525 -6.0141,2.65685 -6.72849,2.20091 -1.53616,-0.98041 1.51775,-6.01363 6.91714,-8.80363 2.2053,-0.74309 4.25875,-1.17246 6.28831,-1.19478 z m -6.91714,13.83428 c 1.32197,-0.002 2.84533,0.16843 4.52758,0.50307 2.57374,0.78616 3.93125,3.50521 4.15029,6.79137 -0.0407,3.01595 -1.38625,4.66703 -4.65335,5.72236 -4.17991,0.83754 -9.30088,-0.24521 -10.31283,-5.72236 0.0978,-5.4753 2.32243,-7.28538 6.28831,-7.29444 z m 316.80501,11.50761 c -18.16031,0 -66.63382,55.63845 -53.19909,61.05948 4.86437,1.96281 17.6336,2.35901 33.01362,-1.69785 20.07498,-5.29528 36.16582,-4.81706 53.45062,-2.45244 l 4.02452,-6.28831 3.96164,-6.35119 -13.7714,0.0628 c -7.57919,0.006 -22.82656,1.46658 -33.89399,3.26993 -31.6742,5.16104 -46.50193,2.30258 -26.22224,-5.03065 18.20571,-6.58327 45.78661,-42.57185 32.63632,-42.57185 z m -434.39637,9.74688 1.32055,4.21316 c 0.98912,1.1456 1.21959,3.10691 1.37224,3.90173 -1.76785,0.96299 -2.75859,-0.004 -3.84282,-0.97713 -1.14658,0 0.24788,2.76201 0.96138,4.62137 l 1.25766,3.39569 -4.77911,-3.39569 c -5.16514,-4.07315 -12.65513,-3.94632 -16.55318,-2.46097 0.28741,0.749 3.80804,2.73144 3.93626,3.76377 0.15378,1.23808 -2.07187,2.09852 -2.94443,2.2649 -2.00885,0.38303 -6.09529,-1.32876 -8.0827,-3.31616 -1.8781,-1.87811 -2.45244,-1.50278 -2.45244,1.69784 0,2.26331 1.7599,5.67322 3.89875,7.60885 2.13885,1.93563 3.4269,4.79505 2.82974,6.35119 -1.06919,2.78626 2.07373,3.74884 9.87264,2.95551 1.93213,-0.1966 3.02346,0.0141 3.31624,0.47342 0.36332,0.56955 0.5371,1.4343 -1.47797,2.46283 -0.23663,0.12073 -0.008,1.21365 -0.5084,1.35544 -0.60848,0.17225 -1.96392,0.0879 -2.336,0.23752 -4.99731,-0.6837 -4.63835,1.94719 -1.00612,1.25603 0.98353,0.0576 2.41343,0.0859 3.01599,0.71315 0.7087,0.73773 1.02547,1.30428 1.02547,2.63332 0,0 -1.52002,4.32757 -0.34667,4.97789 0.95091,0.0219 3.71481,-3.32095 4.4977,-4.60019 1.33997,0.0666 2.82713,-0.14408 2.88578,-0.12375 0.16642,-0.85076 1.0269,-3.19056 0.70924,-4.639 -0.24599,-1.12172 -1.54543,-0.0447 -2.22928,-0.46725 -0.89351,-0.55222 -0.029,-1.8772 -0.64799,-2.92343 -0.61042,-1.03162 -2.71138,-1.78262 -2.62037,-2.60298 0.47782,-4.30698 7.56975,-9.38767 13.58119,-8.18538 3.09614,0.61923 6.19267,0.253 6.85426,-0.81748 0.66161,-1.0705 3.39812,-1.94938 6.09966,-1.94938 5.61663,0 7.09747,-7.30705 1.88649,-9.3067 -1.66011,-0.63706 -3.01839,-2.41992 -3.01839,-3.96163 0,-3.46229 -3.40096,-3.69427 -4.52758,-0.31442 -0.60012,1.80039 -2.29569,1.46249 -6.35119,-1.19478 z m 423.1403,4.33893 c 3.50255,0 -0.73295,5.28073 -11.19319,13.89716 -10.25886,8.45054 -14.11356,10.17563 -12.6395,5.72236 1.03856,-3.13753 21.06112,-19.61952 23.83269,-19.61952 z m -392.51623,4.33893 c -0.38459,-0.038 -0.81527,-0.0266 -1.25767,0.0628 -0.98375,0.19902 -2.66829,2.08396 -3.45857,4.71624 -0.84102,2.80124 1.0032,5.81903 0.88037,9.24381 -0.0378,1.05613 -2.07772,-0.30462 -2.26379,0.94325 -0.10706,0.71825 1.79771,0.58202 2.07514,1.50919 0.28514,0.95301 -0.40765,2.84036 -0.50307,3.52145 -0.27147,1.93795 -0.8605,3.34444 -0.44018,4.02452 2.55503,4.13415 5.30478,1.51062 4.4647,-4.21317 -0.49363,-3.36333 0.0479,-6.13638 1.19478,-6.03677 2.33573,-0.74685 4.09503,-0.88135 4.89872,-0.0892 0.6229,0.65562 0.84109,1.23658 0.85652,1.83305 0.29697,3.13198 -2.18422,3.99585 -2.62602,4.2251 0.57462,0.2916 2.32493,0.0781 3.35921,-1.42536 0.85312,-1.55224 0.77854,-3.29934 0.61736,-4.85816 0.0773,-1.26774 -0.98665,-1.46917 -2.07514,-2.07514 -1.79039,-0.76705 -3.57343,-0.42479 -5.34507,0 -0.84693,-0.84694 -1.48989,-2.11104 -1.88649,-3.39569 -0.29314,-0.94952 -0.94872,-2.61929 -0.77055,-3.67378 0.40877,-2.4193 2.3319,-3.69014 2.58456,-0.50528 0.10283,1.29699 1.64456,-0.85603 1.64456,-2.10925 0,-0.93988 -0.79565,-1.58403 -1.94937,-1.69784 z m -79.29559,3.7101 c -8.29523,0 -43.5151,51.86634 -43.5151,64.07787 0,3.5151 -11.952574,12.91557 -14.966173,11.75914 -4.573543,-1.75503 -3.994837,-3.49425 5.09353,-15.59501 26.407603,-35.16052 35.106053,-64.57117 11.256073,-38.04427 -10.063669,11.19322 -18.416595,25.24474 -25.404768,42.76051 -2.551082,6.39431 -6.908809,13.41206 -9.683996,15.595 -11.11113,8.74003 -11.280884,3.31687 -0.503065,-19.6824 4.436951,-9.46821 7.792292,-17.48672 7.420205,-17.8588 -1.45768,-1.45766 -17.59318,13.95419 -16.852668,16.09807 0.43344,1.2549 -1.36407,7.96088 -3.961635,14.90329 -2.597545,6.9424 -4.716232,14.86566 -4.716232,17.60727 0,6.88955 3.737087,6.29607 14.966176,-2.45244 l 9.558229,-7.48309 1.949376,3.45857 c 2.721118,4.86236 7.334905,4.23733 16.538253,-2.13803 5.519625,-3.82357 8.223495,-4.75637 8.803635,-3.01838 1.44637,4.33315 7.66127,2.80498 16.85267,-4.21317 6.82473,-5.21101 9.84664,-6.3989 13.20544,-5.15642 7.49756,2.77354 18.78122,-1.97766 30.12101,-12.70238 12.91274,-12.21232 12.8008,-14.67931 -0.25154,-4.71623 -11.04936,8.43418 -21.44907,10.54017 -22.2243,7.13953 -0.52684,-2.31108 5.23825,-7.29729 11.094,-14.05667 14.33191,-16.54357 20.54178,-30.18388 13.70851,-30.18388 -4.4159,0 -24.70678,22.96693 -31.31578,35.46606 -4.53048,8.56818 -8.45167,13.32071 -13.0168,15.53212 -11.31642,5.4819 -10.5748,0.34325 2.51532,-16.85267 19.87553,-26.10956 31.0721,-50.24359 23.32963,-50.24359 z m 401.63429,0.3773 c -2.23868,0.2264 -7.81531,7.12608 -16.60114,20.68854 -6.72086,10.37482 -13.48809,19.98628 -15.09194,21.31737 l -2.95551,2.38955 0,-4.77911 c 0.0101,-2.62568 2.31388,-9.62375 5.09354,-15.59501 10.30677,-22.14098 2.2764,-15.76154 -10.12418,8.04904 -11.19633,21.49831 -14.65631,17.37316 -4.27605,-5.09353 8.2302,-17.81324 5.32134,-21.06793 -3.58434,-4.02452 -8.24426,15.77766 -16.78685,26.97685 -20.49989,26.97685 -3.89456,0 -2.31792,-9.09016 3.52146,-20.62566 2.10092,-4.15028 3.92791,-8.16947 2.98641,-7.54597 -1.87373,1.24086 -5.72045,0.51959 -4.52652,-3.01199 1.50638,-4.45578 -2.15863,-4.80732 -6.94378,-2.04451 -5.30196,3.06123 -12.32372,9.94265 -18.36719,18.95366 -8.69497,12.96447 -23.96854,28.36028 -28.10874,28.36028 -6.66986,0 -5.74953,-3.81828 2.51532,-10.43859 11.81733,-9.46591 19.93394,-21.90135 19.93394,-30.62407 0,-14.47929 -11.3851,-5.99233 -30.56118,22.76368 -5.61889,8.42597 -12.08448,17.318 -14.33735,19.80817 -2.25288,2.49017 -3.19715,4.52759 -2.07514,4.52759 1.12202,0 3.07825,2.26379 4.33893,5.03064 3.79134,8.3211 12.72706,6.83001 24.39864,-4.0874 l 9.74688,-9.11805 2.13803,6.09966 c 3.10284,8.90087 8.51268,7.84262 16.53825,-3.3328 l 6.79137,-9.49535 1.1319,4.90488 c 1.75018,7.41383 6.99853,7.11901 13.33121,-0.81748 l 5.65948,-7.0429 2.45244,5.91101 c 3.20283,7.61728 5.83354,7.48297 10.69013,-0.50307 l 3.89875,-6.41407 1.32054,3.39569 c 2.69852,7.03222 8.03999,3.39866 16.91556,-11.57049 10.20372,-17.20918 11.12171,-17.76606 7.0429,-4.21317 -5.78623,19.22615 -1.20892,20.67745 11.57049,3.7101 l 8.61498,-11.38184 1.00613,8.74075 c 1.26624,11.0369 4.12886,12.0517 10.4386,3.64722 7.72536,-10.28972 8.13687,-11.42112 3.89875,-10.31283 -6.01643,1.57333 -6.6384,-2.32456 -2.26379,-13.83428 7.75106,-20.39331 4.73859,-20.81118 -9.93553,-1.50919 -14.16592,18.63348 -14.91098,18.72604 -9.05517,1.50919 4.46424,-13.1254 5.57149,-19.59439 3.33281,-19.36799 z m -271.71784,4.65335 -6.6656,8.04904 c -25.81557,31.08809 -34.96908,38.17665 -35.40316,27.29126 -0.17467,-4.37886 -1.71934,-10.49109 -3.39569,-13.58275 l -3.01839,-5.65948 -0.12576,5.34507 c -0.12537,8.27416 -7.67037,30.97073 -12.07356,36.22066 l -4.02452,4.71623 -2.01226,-3.01839 c -1.11227,-1.66011 -1.99616,-5.02765 -2.01225,-7.48309 -0.0217,-3.13552 -0.96142,-4.08338 -3.08128,-3.26992 -3.77083,1.44702 -4.35575,20.8143 -0.62883,20.8143 1.31222,0 6.51894,-3.38594 11.57049,-7.54597 5.05158,-4.16004 10.84483,-8.83858 12.89104,-10.43859 l 3.77298,-2.95551 -3.3328,7.98616 c -3.18831,7.64078 -6.40822,13.54395 -14.27446,26.22225 -2.70774,4.36416 -2.85707,5.07648 -0.50307,2.82973 14.17492,-13.52912 45.85013,-55.61726 56.78341,-75.4597 z m -64.32938,3.89875 c -1.382,0.0793 -2.82917,0.69115 -4.0874,1.94938 -1.6149,1.61498 -2.33474,4.40186 -1.63496,6.22542 1.21931,3.17744 6.47658,4.54449 9.30469,2.8616 1.45671,-0.86682 1.37751,-3.30693 1.63697,-5.12539 0.53254,-3.73239 -2.17892,-6.08535 -5.2193,-5.91101 z m -14.33734,1.76073 c -0.85626,-0.0318 -1.88239,0.19298 -3.01839,0.62883 -3.22114,1.23607 -4.31658,7.0024 -1.82361,9.49535 3.37723,3.37725 10.23791,1.17574 10.23791,-3.58434 0,-4.26154 -2.82716,-6.44424 -5.39591,-6.53984 z m 201.48559,3.04901 c 4.36006,4.64679 5.58402,6.42617 9.67581,12.10581 l -19.24223,17.79592 c -23.58359,21.79409 -20.94271,21.149 -30.05812,7.4202 l -7.60885,-11.5076 11.13031,-10.69013 c 3.35914,-3.22804 7.52671,-6.81427 9.75649,-9.02703 3.05002,-0.78961 6.47437,-1.13457 9.24764,-1.54924 -8.34942,7.48059 -9.77439,8.84336 -19.69585,18.31089 l 5.5966,6.72849 c 7.12919,8.58973 5.99146,8.81824 18.55051,-3.89875 l 10.75301,-10.87877 -4.27605,-5.47083 c -2.13692,-2.73402 -4.75725,-4.61355 -4.69672,-6.06863 0.0441,-1.06087 1.91008,-1.14713 3.91381,-1.92688 1.54561,-0.60149 5.28622,-1.34345 6.95364,-1.34345 z m -261.97913,2.35894 c 2.77665,0 -4.90674,14.73259 -14.46311,27.66855 -11.04501,14.95109 -12.86582,14.53081 -4.90489,-1.06901 6.19354,-12.13647 16.72826,-26.59954 19.368,-26.59954 z m 224.30397,5.59659 c -4.35095,5.19708 -8.10502,8.73037 -12.66564,13.25274 -3.29761,-3.92179 -4.29746,-5.27075 -6.45082,-8.66227 l 5.53371,-1.25767 c 3.04026,-0.6765 7.34475,-1.68184 9.55823,-2.26379 z m -146.89488,0.78685 c -2.08263,0 -4.02343,-0.24197 -4.8988,1.1378 -1.17261,1.84824 -1.74884,4.94925 0.21154,6.90961 1.93978,1.93976 4.59278,2.01322 7.32835,-0.72234 1.89953,-1.89953 1.74022,-5.98132 1.3829,-7.37638 -0.39382,-1.53755 -1.21423,0.0513 -4.02399,0.0513 z m -11.0997,-1.75032 c -3.52709,3.56498 -8.15754,2.9248 -8.88346,4.70092 0,1.2348 0.76506,3.87903 2.65375,4.95187 7.18205,2.09788 9.63602,0.14729 9.14092,-4.41327 -0.24601,-2.26633 -1.69512,-5.22612 -2.91121,-5.23952 z m 182.4561,5.6797 c 0.49049,0.46491 1.79103,2.94251 1.97709,3.00443 -3.49371,3.45631 -7.81666,7.25041 -12.68786,11.95384 -2.11986,-1.14993 -2.7251,-3.39241 -3.77679,-4.59775 1.77135,-2.80732 8.84074,-8.14236 12.75949,-11.91571 1.10926,-0.35929 1.28505,1.28658 1.72807,1.55519 z m -51.06107,2.26379 c 0.40084,0.0161 0.66155,0.0956 0.7546,0.18855 0.37223,0.37223 -1.48241,2.71295 -4.15029,5.2193 l -5.70869,4.00755 c -0.8754,-2.56456 -2.55109,-3.84305 -3.40935,-7.40324 l 6.28831,-1.25766 c 2.59897,-0.51975 5.0229,-0.80531 6.22542,-0.7546 z m -228.6429,0.25154 c 0.0657,-0.0121 0.0887,0.0257 0.12576,0.0628 0.53436,0.53433 -1.48834,5.54621 -4.52758,11.13031 -5.568886,10.23185 -13.0168,18.65832 -13.0168,14.77752 0,-2.84702 15.38152,-25.62775 17.41862,-25.97071 z m 336.1101,0.0628 c 0.99527,-0.0753 0.23926,2.1834 -2.20091,6.85425 -2.95007,5.64687 -15.28059,18.38388 -15.28059,15.78366 0,-3.39122 6.08326,-12.78314 11.88491,-18.29898 2.98142,-2.83455 4.8225,-4.28038 5.59659,-4.33893 z m -284.60885,1.13189 -3.64722,5.5966 c -4.69869,7.17779 -14.9541,18.11568 -14.96618,15.9723 -0.0177,-3.12672 11.94523,-18.96845 15.28059,-20.24835 z m 313.47219,0.0628 c 3.74234,0 1.88808,5.53461 -6.03678,17.79591 -7.85994,12.16087 -12.13643,15.44358 -12.13643,9.3067 0,-7.1433 13.37623,-27.10261 18.17321,-27.10261 z m -154.00069,1.50919 -4.842,5.28218 c -2.71339,2.96007 -5.77566,6.10698 -7.61919,6.51324 -2.76398,-0.89179 -4.48513,-6.17341 -4.82339,-6.7172 6.67933,-2.40493 10.09933,-3.04485 17.28458,-5.07822 z M 196.0337,184.84178 c -3.01263,-0.16501 -2.75063,2.78708 -1.45997,6.15051 0.74552,1.94277 4.5989,4.06663 7.21952,3.68112 3.90085,-0.57385 5.71178,-6.11079 4.9935,-7.7224 -4.12644,0.31683 -7.0364,-0.22946 -10.75305,-2.10929 z m 13.90678,1.37187 c -2.03588,1.77083 -0.77097,5.77472 1.42303,7.96873 2.42299,2.42298 7.70559,1.08648 8.41102,-2.57658 0.25236,-1.31038 1.56532,-3.61299 0.40894,-4.65807 -3.64209,1.45876 -7.9046,-0.28772 -10.24299,-0.73408 z m 199.50475,5.40767 -3.20704,6.22542 c -1.7734,3.42938 -8.28753,11.21515 -14.46311,17.29285 -6.15653,6.05894 -10.69922,11.29699 -12.94112,12.39218 -1.89208,0.92429 -4.43276,-2.18427 -3.99302,-3.90459 0.39231,-1.53479 26.59661,-27.50154 31.5859,-30.30802 z m -69.76826,-0.48059 c 1.81367,0.7058 2.51879,2.02449 3.53959,3.10578 -2.79811,2.96881 -5.88465,6.18492 -8.46061,8.02805 -1.91076,-0.4237 -2.81084,-2.3764 -3.4442,-3.51206 0.131,-0.92201 2.43568,-2.67505 3.42837,-3.87118 1.64448,-1.98147 2.6495,-2.31207 4.93685,-3.75059 z m -133.09257,2.97569 c -2.72925,3.26428 -6.8423,0.73324 -8.5813,3.01541 -1.22563,1.60844 0.22505,5.11162 0.7838,6.01569 5.79735,4.69073 11.65321,1.3894 11.38715,-4.89776 0.0823,-3.18887 -1.86758,-6.19303 -3.58965,-4.13334 z m 112.73958,2.19519 c 1.31519,0.6465 2.13853,2.73712 2.4619,3.24137 -3.10697,2.34434 -6.04487,5.48654 -8.6598,8.40379 -1.78857,-1.06011 -1.32217,-1.34318 -2.41382,-3.17202 2.942,-2.65612 5.63432,-6.17234 8.61172,-8.47314 z m 28.87312,3.67316 8.30057,11.8849 8.36345,11.88491 -9.55823,8.11192 -9.55823,8.11191 2.51532,2.51533 c 1.38343,1.41009 2.52941,3.55415 2.51533,4.71623 -0.0141,1.16208 -3.40939,4.30621 -7.54598,6.98002 -4.87425,3.1506 -6.54292,3.66328 -4.71623,1.44631 l 2.82974,-3.45857 -2.70397,-5.03064 -2.70397,-5.03065 7.4202,-6.09966 c 8.7523,-7.21439 8.88503,-7.95869 2.64109,-15.21771 l -4.77911,-5.53371 -7.67174,6.72849 -7.60886,6.66561 -2.38955,-3.26992 c -3.25272,-4.44836 -4.39343,-4.18957 -12.38797,2.82974 l -6.91714,6.09966 -3.7101,-4.52759 -3.71011,-4.59046 -4.71623,3.96163 c -2.59575,2.16964 -7.80724,6.64394 -11.57049,9.99841 -4.89198,4.36063 -6.46927,5.08784 -5.53371,2.45244 0.71971,-2.02731 1.32055,-4.40111 1.32055,-5.28218 0,-0.88106 6.01647,-6.84634 13.33121,-13.26833 l 13.26833,-11.69625 c 1.50352,2.9392 4.07111,4.92337 7.17813,7.70699 3.45877,-3.75238 4.42436,-4.5045 7.91382,-7.39258 l 6.6656,-6.47695 3.20704,4.59046 3.20704,4.65335 5.34506,-4.842 c 2.9192,-2.63344 6.77673,-5.83905 8.5521,-7.16867 z m -5.93019,27.38505 c 1.0534,0 -0.84326,1.40581 -3.44259,4.17266 -2.33038,2.48059 -3.92874,4.09974 -5.34798,4.62884 -1.55699,0.58044 -3.43646,-0.61629 -3.43646,-2.34265 0,-1.04831 2.64946,-2.79585 5.04592,-4.76964 1.71562,-1.41303 3.61567,-2.69071 5.08492,-3.29974 0.72194,-0.29926 1.6056,1.61053 2.09619,1.61053 z m -180.76969,0.78657 c -2.99103,0 -5.99881,3.79315 -14.08582,17.60727 -4.14165,7.07474 -2.1596,6.57757 -5.16025,10.56436 -6.13287,0.34667 -11.33332,1.81703 -14.92263,4.77241 -10.44295,8.59852 -21.92061,26.83303 -21.9859,37.98809 l -0.0629,7.54597 3.96164,0 c 2.17497,0 7.03314,-2.71546 10.81589,-6.03678 l 6.91714,-6.03677 1.00613,4.02451 c 1.40107,5.35774 6.03492,5.08869 12.82815,-0.75459 4.32398,-3.71934 6.35357,-4.28899 8.99228,-2.64109 5.11915,3.19695 19.01367,-2.90766 31.50443,-13.83428 14.59752,-12.76956 17.85047,-19.67603 4.15028,-8.80364 -13.6308,10.81735 -24.68892,16.22809 -26.55718,14.10002 -1.41487,-1.61163 3.4759,-8.06453 10.58488,-16.80399 6.48693,-7.97474 13.32868,-17.44902 15.15482,-21.06583 l 3.26992,-6.60273 -3.08127,-1.19478 c -4.80635,-1.86369 -15.953,7.12932 -25.27495,18.9256 -9.25461,7.36308 -11.75475,18.57512 -14.52248,26.86319 -1.6298,2.33652 -4.26586,2.37356 -5.10109,2.69408 -8.02801,3.08064 -6.22628,-3.69449 7.92326,-30.30965 17.77139,-33.42783 16.65752,-31.00137 13.64564,-31.00137 z m 206.94823,1.19478 c 0.64572,-1.8e-4 1.14546,0.31585 1.57208,1.00613 0.93641,1.51513 -0.23847,3.97439 -3.01839,6.22543 -8.58027,6.94788 -11.40415,3.43237 -3.3328,-4.15029 2.22672,-2.09188 3.70292,-3.08097 4.77911,-3.08127 z m -50.54597,1.93928 c 0.32013,-0.28896 2.87351,1.75931 2.55316,2.4206 -2.87854,2.92993 -5.86691,6.46521 -9.09684,9.13994 -1.38432,0.63976 -2.46945,-0.31202 -3.61794,-2.34736 4.22498,-4.80877 7.86495,-7.14026 10.16162,-9.21318 z m -23.27877,4.21998 c 0.78174,-0.0936 3.70416,3.25029 4.26566,3.81181 -4.64856,4.34674 -8.13059,7.37408 -12.05671,10.15351 -1.03901,-0.0557 -4.80578,-1.56231 -4.4775,-3.34103 4.10513,-3.51894 8.19213,-7.56326 12.26855,-10.62429 z m 30.68694,5.03393 c 0.15012,1.8e-4 0.29599,0.0445 0.3773,0.12577 0.65065,0.65062 -1.81021,3.22199 -5.47083,5.72236 0,0 -4.93061,6.57799 -6.6656,4.52758 -1.70461,-2.01451 5.47082,-5.72236 5.47082,-5.72236 2.63375,-2.75712 5.23802,-4.65458 6.28831,-4.65335 z m -51.12395,4.77912 3.01839,4.02451 c 1.66635,2.2081 2.75233,4.83611 2.45244,5.84813 -0.29985,1.01203 -2.53824,3.16597 -4.96776,4.77912 l -4.40182,2.89262 0.0628,-5.78525 c 0.0161,-3.17852 0.8404,-7.08602 1.88649,-8.74074 z m 28.31339,0.0853 c 0.53405,0 2.44133,1.55185 1.91971,2.49069 -3.92299,3.19494 -7.0753,7.17225 -11.1357,10.15758 -1.76966,-0.78192 -2.40883,-1.62478 -2.40014,-2.45896 2.0946,-2.16664 7.59594,-8.31015 11.61613,-10.18931 z m 26.85428,3.39568 c 0.69998,-0.0779 2.70075,1.62058 2.91713,1.97071 0.61523,0.99546 -1.55978,2.29112 -3.75419,4.18399 -2.6525,2.28798 -5.55939,5.05294 -6.53946,4.07287 -1.00915,-1.00915 -2.16268,-1.91565 -1.91468,-2.88236 0.3322,-1.29505 2.59531,-2.69814 5.49902,-4.60073 1.69321,-1.10944 2.62551,-2.61467 3.79218,-2.74448 z m -19.95314,5.95146 c 0.15132,-0.004 0.24312,0.0545 0.31442,0.12577 0.57035,0.57033 -1.62677,2.94796 -4.90488,5.28218 -8.36911,5.95932 -9.90963,5.25871 -2.38956,-1.06902 3.0204,-2.5415 5.92085,-4.31577 6.98002,-4.33893 z m -137.08512,0.44018 c 0.77768,-0.0201 0.65644,0.79561 -0.3773,2.70397 -2.87614,5.30951 -16.12886,19.85571 -16.22384,17.79592 -0.11902,-2.57935 12.45973,-18.995 15.53212,-20.24836 0.46882,-0.19116 0.80979,-0.24479 1.06902,-0.25153 z m 112.49783,5.5966 c 0.39153,-0.0396 0.76392,0.0722 1.00613,0.31441 0.32575,0.32575 1.25557,0.48643 0.9114,1.30431 -0.46073,1.09481 -2.42784,2.97901 -3.74114,4.29229 -1.10666,1.10666 -2.21905,2.76221 -3.15325,3.17719 -1.62367,0.18996 -2.7586,-1.58242 -3.29072,-2.12273 2.00783,-2.3343 6.40017,-6.77598 8.26758,-6.96547 z m 29.86947,1.57207 c 3.98876,0 1.66227,4.1022 -4.02452,7.04291 -1.41956,0.73409 -2.74124,2.49824 -3.99308,3.00811 -1.62762,0.66291 -3.05262,-0.0328 -3.55289,-0.0525 -2.23956,-0.0885 9.22838,-9.99842 11.57049,-9.99842 z m -183.74438,6.03678 c 3.706,0 1.6467,6.61295 -5.28218,16.97844 -5.91167,8.84377 -9.71798,11.03965 -11.44472,6.53984 -1.92058,-5.00497 11.23746,-23.51828 16.7269,-23.51828 z m 160.28899,0.69171 c 0.72159,-0.12133 1.19478,0.37861 1.19478,1.25767 0,1.17206 -0.90552,2.07514 -2.01226,2.07514 -1.10674,0 -2.01226,-0.39231 -2.01226,-0.88036 0,-0.48806 0.90552,-1.45402 2.01226,-2.13803 0.27668,-0.17104 0.57695,-0.27397 0.81748,-0.31442 z" id="path3033" inkscape:connector-curvature="0" sodipodi:nodetypes="sssssccccccscsssscccssscccssccccsscccscsscsscsccccccssscccsssccscccccsccsccsscccccccccccccscccsccsscsscsssssscssccccscssccccssscscccccccssssssssssccsccccsssssssssccscsscssssscssccscccccsssscsssssssssssscccssssssssssssssscccsssssssssssssssssccccccccccccssccccsssssccccccccccssscccssccscsssssscsssccccccccccccssssccsccccccscsssssscccscccccccscccccssssssssccccccsssccscccscccsssccsccscccssssscccccccssccsscccscscccccccccccccccsssccccccccccssssscsscsscsscscssssscccssssssccsssssscsscccsccccccccscccccssssccccccccssssccccsccssscscscccscsssscssssssscsss"/>
</svg>